<svg xmlns="http://www.w3.org/2000/svg" id="Capa_2" viewBox="0 0 939.35 211.65"><defs><style>      .cls-1 {        fill: #fff;      }    </style></defs><g id="Capa_1-2" data-name="Capa_1"><g><path class="cls-1" d="M202.01,76.71c.97,2.55,1.94,4.55,2.91,6.01.97,1.46,1.91,2.53,2.82,3.23.91.7,1.76,1.12,2.55,1.27.79.15,1.49.23,2.09.23v1.55h-23.48v-1.55c1.58,0,2.87-.39,3.87-1.18,1-.79,1.5-1.88,1.5-3.28,0-.61-.08-1.26-.23-1.96-.15-.7-.38-1.47-.68-2.32l-1.37-3.82h-30.03l-1.46,3.73c-.73,1.7-1.09,3.25-1.09,4.64,0,1.15.42,2.14,1.27,2.96.85.82,2.3,1.23,4.37,1.23v1.55h-18.29v-1.55c2.31,0,4.46-.73,6.46-2.18s3.76-4.09,5.28-7.92l21.02-53.51h2.91l19.56,52.87ZM191.36,72.89l-13.56-38.86-15.01,38.86h28.57Z"></path><path class="cls-1" d="M287.82,25.39v1.55c-1.21,0-2.4.27-3.55.82-1.15.55-2.29,1.31-3.41,2.28-1.12.97-2.2,2.09-3.23,3.37-1.03,1.27-2,2.61-2.91,4l-14.74,22.66v16.74c0,2.25.18,4.06.55,5.46s.88,2.49,1.55,3.28c.67.79,1.46,1.31,2.37,1.55.91.24,1.91.36,3,.36v1.55h-23.29v-1.55c1.09,0,2.08-.14,2.96-.41.88-.27,1.65-.8,2.32-1.59.67-.79,1.18-1.91,1.55-3.37s.55-3.37.55-5.73v-15.2l-15.65-24.75c-1.27-2-2.43-3.62-3.46-4.87-1.03-1.24-2.05-2.21-3.05-2.91-1-.7-2.05-1.15-3.14-1.36-1.09-.21-2.37-.32-3.82-.32v-1.55h25.66v1.55c-3.64,0-5.46.91-5.46,2.73,0,.67.21,1.47.64,2.41.42.94,1,2.02,1.73,3.23l14.01,22.48,13.92-21.47c.73-1.03,1.3-2.08,1.73-3.14.42-1.06.64-2.02.64-2.87,0-1.03-.35-1.85-1.05-2.46-.7-.61-1.9-.91-3.59-.91v-1.55h17.2Z"></path><path class="cls-1" d="M374.36,25.39v1.55c-1.09,0-2.09.11-3,.32-.91.21-1.68.64-2.32,1.27s-1.14,1.53-1.5,2.68c-.36,1.15-.55,2.64-.55,4.46v29.85c0,4.13-.7,7.75-2.09,10.87-1.4,3.12-3.26,5.73-5.6,7.83-2.34,2.09-4.97,3.66-7.92,4.69-2.94,1.03-5.96,1.55-9.05,1.55s-6.02-.52-8.96-1.55c-2.94-1.03-5.57-2.58-7.87-4.64-2.31-2.06-4.17-4.64-5.6-7.74-1.43-3.09-2.14-6.7-2.14-10.83v-29.94c0-1.82-.17-3.31-.5-4.46-.33-1.15-.82-2.05-1.46-2.68s-1.41-1.08-2.32-1.32c-.91-.24-1.91-.36-3-.36v-1.55h23.02v1.55c-1.09,0-2.09.12-3,.36-.91.24-1.68.68-2.32,1.32-.64.64-1.14,1.53-1.5,2.68-.36,1.15-.55,2.64-.55,4.46v29.76c0,3.46.51,6.45,1.55,8.96,1.03,2.52,2.41,4.59,4.14,6.23,1.73,1.64,3.68,2.85,5.87,3.64,2.18.79,4.46,1.18,6.82,1.18,2.49,0,4.93-.44,7.33-1.32,2.4-.88,4.55-2.15,6.46-3.82,1.91-1.67,3.46-3.75,4.64-6.23,1.18-2.49,1.77-5.34,1.77-8.55v-29.94c0-1.82-.17-3.31-.5-4.46-.33-1.15-.82-2.05-1.46-2.68s-1.41-1.06-2.32-1.27c-.91-.21-1.91-.32-3-.32v-1.55h16.92ZM347.33,19.56l-1.82-1.73,11.65-17.83,5.64,4.82-15.47,14.74Z"></path><path class="cls-1" d="M424.49,25.39c10.92,0,19.37,2.67,25.34,8.01,5.97,5.34,8.96,12.92,8.96,22.75,0,4.79-.74,9.21-2.23,13.24-1.49,4.04-3.67,7.51-6.55,10.42-2.88,2.91-6.45,5.17-10.69,6.78-4.25,1.61-9.13,2.41-14.65,2.41h-25.84v-1.55c1.03,0,2-.11,2.91-.32.91-.21,1.68-.64,2.32-1.27.64-.64,1.14-1.55,1.5-2.73.36-1.18.55-2.71.55-4.6v-42.68c0-1.88-.18-3.41-.55-4.6-.36-1.18-.87-2.09-1.5-2.73s-1.41-1.06-2.32-1.27c-.91-.21-1.88-.32-2.91-.32v-1.55h25.66ZM424.77,86.99c4.06,0,7.66-.76,10.78-2.27,3.12-1.52,5.75-3.62,7.87-6.32,2.12-2.7,3.73-5.9,4.82-9.6,1.09-3.7,1.64-7.76,1.64-12.19s-.56-8.54-1.68-12.15c-1.12-3.61-2.78-6.69-4.96-9.24s-4.84-4.5-7.96-5.87c-3.12-1.37-6.69-2.05-10.69-2.05h-4.19c-.79,0-1.53.09-2.23.27-.7.18-1.32.55-1.87,1.09s-.99,1.29-1.32,2.23c-.33.94-.5,2.17-.5,3.68v45.59c0,1.88.41,3.49,1.23,4.82.82,1.33,2.38,2,4.69,2h4.37Z"></path><path class="cls-1" d="M531.14,76.71c.97,2.55,1.94,4.55,2.91,6.01.97,1.46,1.91,2.53,2.82,3.23.91.7,1.76,1.12,2.55,1.27.79.15,1.49.23,2.09.23v1.55h-23.48v-1.55c1.58,0,2.87-.39,3.87-1.18,1-.79,1.5-1.88,1.5-3.28,0-.61-.08-1.26-.23-1.96-.15-.7-.38-1.47-.68-2.32l-1.37-3.82h-30.03l-1.46,3.73c-.73,1.7-1.09,3.25-1.09,4.64,0,1.15.42,2.14,1.27,2.96.85.82,2.3,1.23,4.37,1.23v1.55h-18.29v-1.55c2.31,0,4.46-.73,6.46-2.18s3.76-4.09,5.28-7.92l21.02-53.51h2.91l19.56,52.87ZM520.5,72.89l-13.56-38.86-15.01,38.86h28.57Z"></path><path class="cls-1" d="M625.5,25.39v1.55c-1.03,0-2,.11-2.91.32-.91.21-1.68.64-2.32,1.27-.64.64-1.14,1.53-1.5,2.68-.36,1.15-.55,2.67-.55,4.55v54.51h-1.55l-42.31-54.23v42.5c0,1.88.18,3.41.55,4.6s.92,2.09,1.68,2.73c.76.64,1.71,1.06,2.87,1.27,1.15.21,2.55.32,4.19.32v1.55h-18.84v-1.55c1.03,0,2-.11,2.91-.32.91-.21,1.68-.64,2.32-1.27.64-.64,1.14-1.55,1.5-2.73.36-1.18.55-2.71.55-4.6v-42.68c0-1.88-.18-3.41-.55-4.6-.36-1.18-.87-2.09-1.5-2.73s-1.41-1.06-2.32-1.27c-.91-.21-1.88-.32-2.91-.32v-1.55h11.56l39.58,50.87v-40.49c0-1.88-.18-3.4-.55-4.55-.36-1.15-.86-2.05-1.5-2.68-.64-.64-1.41-1.06-2.32-1.27-.91-.21-1.88-.32-2.91-.32v-1.55h16.83Z"></path><path class="cls-1" d="M650.16,57.15c0-5.52.94-10.36,2.82-14.51,1.88-4.15,4.34-7.61,7.37-10.37,3.03-2.76,6.49-4.82,10.37-6.19,3.88-1.37,7.86-2.05,11.92-2.05s8.04.68,11.92,2.05c3.88,1.37,7.36,3.43,10.42,6.19,3.06,2.76,5.52,6.22,7.37,10.37,1.85,4.16,2.78,8.99,2.78,14.51s-.93,10.34-2.78,14.47c-1.85,4.13-4.31,7.57-7.37,10.33-3.06,2.76-6.54,4.84-10.42,6.23-3.88,1.4-7.86,2.09-11.92,2.09s-8.04-.68-11.92-2.05c-3.88-1.37-7.34-3.43-10.37-6.19-3.03-2.76-5.49-6.22-7.37-10.37-1.88-4.15-2.82-8.99-2.82-14.51ZM658.63,53.42c0,3.94.55,7.96,1.64,12.06s2.71,7.81,4.87,11.15c2.15,3.34,4.82,6.07,8.01,8.19,3.18,2.12,6.87,3.18,11.06,3.18,3.09,0,6-.64,8.74-1.91,2.73-1.27,5.12-3.09,7.19-5.46,2.06-2.37,3.69-5.22,4.87-8.55,1.18-3.34,1.77-7.07,1.77-11.19s-.56-7.96-1.68-12.06c-1.12-4.09-2.76-7.81-4.91-11.15-2.15-3.34-4.82-6.07-8.01-8.19-3.19-2.12-6.87-3.18-11.06-3.18-3.09,0-5.99.64-8.69,1.91-2.7,1.27-5.08,3.09-7.14,5.46-2.06,2.37-3.69,5.22-4.87,8.55-1.18,3.34-1.77,7.07-1.77,11.19Z"></path><path class="cls-1" d="M751.35,36.58c0,2.06.86,3.94,2.59,5.64,1.73,1.7,3.9,3.32,6.51,4.87,2.61,1.55,5.41,3.12,8.42,4.73,3,1.61,5.81,3.34,8.42,5.19,2.61,1.85,4.78,3.93,6.51,6.23,1.73,2.31,2.59,4.95,2.59,7.92,0,3.52-.55,6.48-1.64,8.87-1.09,2.4-2.64,4.31-4.64,5.73-2,1.43-4.37,2.44-7.1,3.05-2.73.61-5.73.91-9.01.91s-6.61-.26-10.37-.77c-3.76-.51-7.71-1.17-11.83-1.96v-12.38h1.73c2.24,4.31,5.14,7.42,8.69,9.33,3.55,1.91,7.45,2.87,11.69,2.87,2,0,3.85-.26,5.55-.77,1.7-.51,3.18-1.27,4.46-2.28,1.27-1,2.27-2.26,3-3.78.73-1.52,1.09-3.28,1.09-5.28,0-2.85-.83-5.31-2.5-7.37-1.67-2.06-3.78-3.93-6.32-5.6-2.55-1.67-5.28-3.25-8.19-4.73-2.91-1.49-5.64-3.06-8.19-4.73-2.55-1.67-4.66-3.53-6.32-5.6-1.67-2.06-2.5-4.52-2.5-7.37s.61-5.31,1.82-7.19c1.21-1.88,2.81-3.37,4.78-4.46,1.97-1.09,4.22-1.83,6.73-2.23,2.52-.39,5.11-.59,7.78-.59,2.49,0,5.05.14,7.69.41,2.64.27,5.11.56,7.42.86v10.01h-1.64c-1.76-2.97-4-5.14-6.73-6.51-2.73-1.37-5.7-2.05-8.92-2.05-1.52,0-2.97.18-4.37.55-1.4.36-2.62.91-3.68,1.64-1.06.73-1.91,1.65-2.55,2.78-.64,1.12-.96,2.47-.96,4.05Z"></path><path class="cls-1" d="M59.33,189.72c-1.09,3.64-2.58,6.79-4.46,9.46-1.88,2.67-4.06,4.88-6.55,6.64-2.49,1.76-5.2,3.06-8.14,3.91-2.94.85-5.96,1.27-9.05,1.27-3.82,0-7.6-.68-11.33-2.05s-7.05-3.4-9.96-6.1c-2.91-2.7-5.28-6.05-7.1-10.05s-2.73-8.67-2.73-14.01c0-6.37.94-11.66,2.82-15.88,1.88-4.22,4.4-7.58,7.55-10.1,3.15-2.52,6.84-4.31,11.06-5.37,4.22-1.06,8.63-1.59,13.24-1.59,2.97,0,6.07.21,9.28.64,3.21.42,6.49.97,9.83,1.64v12.19h-1.55c-2.18-4.19-5.07-7.25-8.64-9.19-3.58-1.94-7.46-2.91-11.65-2.91-2.91,0-5.78.55-8.6,1.64s-5.34,2.75-7.55,4.96-4.02,4.99-5.41,8.33c-1.4,3.34-2.09,7.25-2.09,11.74,0,5.34.77,9.96,2.32,13.88s3.56,7.14,6.05,9.69c2.49,2.55,5.31,4.44,8.46,5.69,3.15,1.24,6.34,1.87,9.55,1.87,2.55,0,5.02-.35,7.42-1.05,2.4-.7,4.6-1.76,6.6-3.18,2-1.42,3.76-3.18,5.28-5.28,1.52-2.09,2.7-4.5,3.55-7.23l1.82.46Z"></path><path class="cls-1" d="M85.99,178.34c0-5.52.94-10.36,2.82-14.51,1.88-4.15,4.34-7.61,7.37-10.37,3.03-2.76,6.49-4.82,10.38-6.19,3.88-1.37,7.86-2.05,11.92-2.05s8.04.68,11.92,2.05,7.36,3.43,10.42,6.19c3.06,2.76,5.52,6.22,7.37,10.37,1.85,4.16,2.78,8.99,2.78,14.51s-.93,10.34-2.78,14.47c-1.85,4.13-4.31,7.57-7.37,10.33-3.06,2.76-6.54,4.84-10.42,6.23-3.88,1.4-7.86,2.09-11.92,2.09s-8.04-.68-11.92-2.05c-3.88-1.37-7.34-3.43-10.38-6.19-3.03-2.76-5.49-6.22-7.37-10.37-1.88-4.15-2.82-8.99-2.82-14.51ZM94.45,174.61c0,3.94.55,7.96,1.64,12.06s2.71,7.81,4.87,11.15c2.15,3.34,4.82,6.07,8.01,8.19,3.19,2.12,6.87,3.18,11.06,3.18,3.09,0,6.01-.64,8.74-1.91,2.73-1.27,5.12-3.09,7.19-5.46,2.06-2.37,3.69-5.22,4.87-8.55,1.18-3.34,1.77-7.07,1.77-11.19s-.56-7.96-1.68-12.06-2.76-7.81-4.91-11.15c-2.15-3.34-4.82-6.07-8.01-8.19-3.19-2.12-6.87-3.18-11.06-3.18-3.09,0-5.99.64-8.69,1.91-2.7,1.27-5.08,3.09-7.14,5.46-2.06,2.37-3.69,5.22-4.87,8.55-1.18,3.34-1.78,7.07-1.78,11.19Z"></path><path class="cls-1" d="M236.32,146.58v1.55c-1.03,0-2,.11-2.91.32-.91.21-1.68.64-2.32,1.27-.64.64-1.14,1.53-1.5,2.68-.36,1.15-.55,2.67-.55,4.55v54.51h-1.55l-42.31-54.23v42.5c0,1.88.18,3.41.55,4.6s.92,2.09,1.68,2.73c.76.64,1.71,1.06,2.87,1.27,1.15.21,2.55.32,4.19.32v1.55h-18.84v-1.55c1.03,0,2-.11,2.91-.32.91-.21,1.68-.64,2.32-1.27.64-.64,1.14-1.55,1.5-2.73.36-1.18.55-2.71.55-4.6v-42.68c0-1.88-.18-3.41-.55-4.6-.36-1.18-.87-2.09-1.5-2.73s-1.41-1.06-2.32-1.27c-.91-.21-1.88-.32-2.91-.32v-1.55h11.56l39.58,50.87v-40.49c0-1.88-.18-3.4-.55-4.55-.36-1.15-.86-2.05-1.5-2.68-.64-.64-1.41-1.06-2.32-1.27-.91-.21-1.88-.32-2.91-.32v-1.55h16.83Z"></path><path class="cls-1" d="M352.33,198.63v11.56h-51.23v-1.55c1.15,0,2.17-.12,3.05-.36.88-.24,1.64-.7,2.27-1.36.64-.67,1.12-1.61,1.46-2.82.33-1.21.5-2.82.5-4.82v-42.22c0-1.88-.18-3.41-.55-4.6-.36-1.18-.87-2.09-1.5-2.73s-1.41-1.06-2.32-1.27c-.91-.21-1.88-.32-2.91-.32v-1.55h23.02v1.55c-1.03,0-2,.11-2.91.32-.91.21-1.7.64-2.37,1.27-.67.64-1.18,1.53-1.55,2.68-.36,1.15-.55,2.67-.55,4.55v44.5c0,1.94.5,3.55,1.5,4.82,1,1.27,2.65,1.91,4.96,1.91h7.55c3.03,0,5.58-.08,7.64-.23,2.06-.15,3.84-.55,5.32-1.18,1.49-.64,2.76-1.59,3.82-2.87,1.06-1.27,2.08-3.03,3.05-5.28h1.73Z"></path><path class="cls-1" d="M429.77,197.91c.97,2.55,1.94,4.55,2.91,6.01.97,1.46,1.91,2.53,2.82,3.23.91.7,1.76,1.12,2.55,1.27.79.15,1.49.23,2.09.23v1.55h-23.48v-1.55c1.58,0,2.87-.39,3.87-1.18,1-.79,1.5-1.88,1.5-3.28,0-.61-.08-1.26-.23-1.96-.15-.7-.38-1.47-.68-2.32l-1.37-3.82h-30.03l-1.46,3.73c-.73,1.7-1.09,3.25-1.09,4.64,0,1.15.42,2.14,1.27,2.96.85.82,2.3,1.23,4.37,1.23v1.55h-18.29v-1.55c2.31,0,4.46-.73,6.46-2.18s3.76-4.09,5.28-7.92l21.02-53.51h2.91l19.56,52.87ZM419.13,194.08l-13.56-38.86-15.01,38.86h28.57Z"></path><path class="cls-1" d="M565.35,148.13c-1.09,0-2.08.12-2.96.36-.88.24-1.64.7-2.27,1.37-.64.67-1.14,1.58-1.5,2.73-.36,1.15-.55,2.67-.55,4.55v42.59c0,1.88.18,3.41.55,4.6s.86,2.09,1.5,2.73c.64.64,1.41,1.06,2.32,1.27.91.21,1.88.32,2.91.32v1.55h-25.21v-1.55c1.58,0,2.97-.11,4.19-.32,1.21-.21,2.21-.64,3-1.27.79-.64,1.38-1.55,1.77-2.73.39-1.18.59-2.71.59-4.6v-44.77l-19.66,24.66h-1.73l-20.84-23.57v43.77c0,1.88.2,3.4.59,4.55.39,1.15.99,2.05,1.77,2.68.79.64,1.77,1.06,2.96,1.27,1.18.21,2.56.32,4.14.32v1.55h-19.02v-1.55c1.03,0,2-.11,2.91-.32.91-.21,1.68-.64,2.32-1.27.64-.64,1.14-1.55,1.5-2.73.36-1.18.55-2.71.55-4.6v-42.59c0-1.88-.18-3.41-.55-4.59-.36-1.18-.87-2.09-1.5-2.73s-1.41-1.08-2.32-1.32c-.91-.24-1.88-.36-2.91-.36v-1.55h12.56l22.75,25.66,20.47-25.66h11.65v1.55Z"></path><path class="cls-1" d="M653.71,146.58v1.55c-1.09,0-2.09.11-3,.32-.91.21-1.68.64-2.32,1.27s-1.14,1.53-1.5,2.68c-.36,1.15-.55,2.64-.55,4.46v29.85c0,4.13-.7,7.75-2.09,10.87-1.4,3.12-3.26,5.73-5.6,7.83-2.34,2.09-4.97,3.66-7.92,4.69-2.94,1.03-5.96,1.55-9.05,1.55s-6.02-.52-8.96-1.55c-2.94-1.03-5.57-2.58-7.87-4.64-2.31-2.06-4.17-4.64-5.6-7.74-1.43-3.09-2.14-6.7-2.14-10.83v-29.94c0-1.82-.17-3.31-.5-4.46-.33-1.15-.82-2.05-1.46-2.68s-1.41-1.08-2.32-1.32c-.91-.24-1.91-.36-3-.36v-1.55h23.02v1.55c-1.09,0-2.09.12-3,.36-.91.24-1.68.68-2.32,1.32-.64.64-1.14,1.53-1.5,2.68-.36,1.15-.55,2.64-.55,4.46v29.76c0,3.46.51,6.45,1.55,8.96,1.03,2.52,2.41,4.59,4.14,6.23,1.73,1.64,3.68,2.85,5.87,3.64,2.18.79,4.46,1.18,6.82,1.18,2.49,0,4.93-.44,7.33-1.32,2.4-.88,4.55-2.15,6.46-3.82,1.91-1.67,3.46-3.75,4.64-6.23,1.18-2.49,1.77-5.34,1.77-8.55v-29.94c0-1.82-.17-3.31-.5-4.46-.33-1.15-.82-2.05-1.46-2.68s-1.41-1.06-2.32-1.27c-.91-.21-1.91-.32-3-.32v-1.55h16.92ZM626.69,140.76l-1.82-1.73,11.65-17.83,5.64,4.82-15.47,14.74Z"></path><path class="cls-1" d="M686.56,157.78c0,2.06.86,3.94,2.59,5.64,1.73,1.7,3.9,3.32,6.51,4.87,2.61,1.55,5.41,3.12,8.42,4.73,3,1.61,5.81,3.34,8.42,5.19,2.61,1.85,4.78,3.93,6.51,6.23,1.73,2.31,2.59,4.95,2.59,7.92,0,3.52-.55,6.48-1.64,8.87-1.09,2.4-2.64,4.31-4.64,5.73-2,1.43-4.37,2.44-7.1,3.05-2.73.61-5.73.91-9.01.91s-6.61-.26-10.37-.77c-3.76-.51-7.71-1.17-11.83-1.96v-12.38h1.73c2.24,4.31,5.14,7.42,8.69,9.33,3.55,1.91,7.45,2.87,11.69,2.87,2,0,3.85-.26,5.55-.77,1.7-.51,3.18-1.27,4.46-2.28,1.27-1,2.27-2.26,3-3.78.73-1.52,1.09-3.28,1.09-5.28,0-2.85-.83-5.31-2.5-7.37-1.67-2.06-3.78-3.93-6.32-5.6-2.55-1.67-5.28-3.25-8.19-4.73-2.91-1.49-5.64-3.06-8.19-4.73-2.55-1.67-4.66-3.53-6.32-5.6-1.67-2.06-2.5-4.52-2.5-7.37s.61-5.31,1.82-7.19c1.21-1.88,2.81-3.37,4.78-4.46,1.97-1.09,4.22-1.83,6.73-2.23,2.52-.39,5.11-.59,7.78-.59,2.49,0,5.05.14,7.69.41,2.64.27,5.11.56,7.42.86v10.01h-1.64c-1.76-2.97-4-5.14-6.73-6.51-2.73-1.37-5.7-2.05-8.92-2.05-1.52,0-2.97.18-4.37.55-1.4.36-2.62.91-3.68,1.64-1.06.73-1.91,1.65-2.55,2.78-.64,1.12-.96,2.47-.96,4.05Z"></path><path class="cls-1" d="M769.73,148.13c-1.03,0-2,.12-2.91.36-.91.24-1.7.68-2.37,1.32-.67.64-1.18,1.53-1.55,2.68-.36,1.15-.55,2.67-.55,4.55v42.86c0,1.88.18,3.4.55,4.55.36,1.15.88,2.03,1.55,2.64.67.61,1.46,1.02,2.37,1.23.91.21,1.88.32,2.91.32v1.55h-23.2v-1.55c1.03,0,2-.11,2.91-.32.91-.21,1.7-.62,2.37-1.23.67-.61,1.2-1.49,1.59-2.64s.59-2.67.59-4.55v-42.86c0-1.88-.2-3.41-.59-4.6-.39-1.18-.93-2.09-1.59-2.73-.67-.64-1.46-1.06-2.37-1.27-.91-.21-1.88-.32-2.91-.32v-1.55h23.2v1.55Z"></path><path class="cls-1" d="M853.9,189.72c-1.09,3.64-2.58,6.79-4.46,9.46-1.88,2.67-4.07,4.88-6.55,6.64-2.49,1.76-5.2,3.06-8.14,3.91s-5.96,1.27-9.05,1.27c-3.82,0-7.6-.68-11.33-2.05s-7.05-3.4-9.96-6.1c-2.91-2.7-5.28-6.05-7.1-10.05-1.82-4-2.73-8.67-2.73-14.01,0-6.37.94-11.66,2.82-15.88,1.88-4.22,4.4-7.58,7.55-10.1,3.15-2.52,6.84-4.31,11.06-5.37,4.22-1.06,8.63-1.59,13.24-1.59,2.97,0,6.07.21,9.28.64,3.21.42,6.49.97,9.83,1.64v12.19h-1.55c-2.18-4.19-5.07-7.25-8.64-9.19-3.58-1.94-7.46-2.91-11.65-2.91-2.91,0-5.78.55-8.6,1.64-2.82,1.09-5.34,2.75-7.55,4.96s-4.02,4.99-5.41,8.33c-1.4,3.34-2.09,7.25-2.09,11.74,0,5.34.77,9.96,2.32,13.88s3.56,7.14,6.05,9.69c2.49,2.55,5.31,4.44,8.46,5.69,3.15,1.24,6.34,1.87,9.55,1.87,2.55,0,5.02-.35,7.42-1.05,2.4-.7,4.6-1.76,6.6-3.18,2-1.42,3.76-3.18,5.28-5.28,1.52-2.09,2.7-4.5,3.55-7.23l1.82.46Z"></path><path class="cls-1" d="M928.98,197.91c.97,2.55,1.94,4.55,2.91,6.01.97,1.46,1.91,2.53,2.82,3.23.91.7,1.76,1.12,2.55,1.27.79.15,1.49.23,2.09.23v1.55h-23.48v-1.55c1.58,0,2.87-.39,3.87-1.18,1-.79,1.5-1.88,1.5-3.28,0-.61-.08-1.26-.23-1.96-.15-.7-.38-1.47-.68-2.32l-1.37-3.82h-30.03l-1.46,3.73c-.73,1.7-1.09,3.25-1.09,4.64,0,1.15.42,2.14,1.27,2.96.85.82,2.3,1.23,4.37,1.23v1.55h-18.29v-1.55c2.31,0,4.46-.73,6.46-2.18s3.76-4.09,5.28-7.92l21.02-53.51h2.91l19.56,52.87ZM918.33,194.08l-13.56-38.86-15.01,38.86h28.57Z"></path></g></g></svg>