<svg xmlns="http://www.w3.org/2000/svg" id="Capa_2" viewBox="0 0 831.06 185.62"><defs><style>      .cls-1 {        fill: #a58a45;      }    </style></defs><g id="Capa_1-2" data-name="Capa_1"><g><path class="cls-1" d="M59.33,44.68c-1.09,3.64-2.58,6.79-4.46,9.46-1.88,2.67-4.07,4.88-6.55,6.64-2.49,1.76-5.2,3.06-8.14,3.91-2.94.85-5.96,1.27-9.05,1.27-3.82,0-7.6-.68-11.33-2.05s-7.05-3.4-9.96-6.1c-2.91-2.7-5.28-6.05-7.1-10.05s-2.73-8.67-2.73-14.01c0-6.37.94-11.66,2.82-15.88,1.88-4.22,4.4-7.58,7.55-10.1,3.15-2.52,6.84-4.31,11.06-5.37,4.22-1.06,8.63-1.59,13.24-1.59,2.97,0,6.06.21,9.28.64,3.21.42,6.49.97,9.83,1.64v12.19h-1.55c-2.19-4.19-5.07-7.25-8.64-9.19-3.58-1.94-7.46-2.91-11.65-2.91-2.91,0-5.78.55-8.6,1.64s-5.34,2.75-7.55,4.96-4.02,4.99-5.41,8.33c-1.4,3.34-2.09,7.25-2.09,11.74,0,5.34.77,9.96,2.32,13.88s3.56,7.14,6.05,9.69c2.49,2.55,5.31,4.44,8.46,5.69,3.15,1.24,6.34,1.87,9.56,1.87,2.55,0,5.02-.35,7.42-1.05,2.39-.7,4.6-1.76,6.6-3.18,2-1.42,3.76-3.18,5.28-5.28,1.52-2.09,2.7-4.5,3.55-7.23l1.82.46Z"></path><path class="cls-1" d="M85.99,33.3c0-5.52.94-10.36,2.82-14.51,1.88-4.15,4.34-7.61,7.37-10.37,3.03-2.76,6.49-4.82,10.37-6.19,3.88-1.37,7.86-2.05,11.92-2.05s8.04.68,11.92,2.05c3.88,1.37,7.36,3.43,10.42,6.19,3.06,2.76,5.52,6.22,7.37,10.37,1.85,4.16,2.78,8.99,2.78,14.51s-.93,10.34-2.78,14.47c-1.85,4.13-4.31,7.57-7.37,10.33-3.06,2.76-6.54,4.84-10.42,6.23-3.88,1.4-7.86,2.09-11.92,2.09s-8.04-.68-11.92-2.05c-3.88-1.37-7.34-3.43-10.37-6.19-3.03-2.76-5.49-6.22-7.37-10.37-1.88-4.15-2.82-8.99-2.82-14.51ZM94.45,29.57c0,3.94.55,7.96,1.64,12.06s2.71,7.81,4.87,11.15c2.15,3.34,4.82,6.07,8.01,8.19,3.18,2.12,6.87,3.18,11.06,3.18,3.09,0,6-.64,8.74-1.91,2.73-1.27,5.12-3.09,7.19-5.46,2.06-2.37,3.69-5.22,4.87-8.55,1.18-3.34,1.77-7.07,1.77-11.19s-.56-7.96-1.68-12.06c-1.12-4.09-2.76-7.81-4.91-11.15-2.15-3.34-4.82-6.07-8.01-8.19-3.19-2.12-6.87-3.18-11.06-3.18-3.09,0-5.99.64-8.69,1.91-2.7,1.27-5.08,3.09-7.14,5.46-2.06,2.37-3.69,5.22-4.87,8.55-1.18,3.34-1.77,7.07-1.77,11.19Z"></path><path class="cls-1" d="M236.32,1.55v1.55c-1.03,0-2,.11-2.91.32-.91.21-1.68.64-2.32,1.27-.64.64-1.14,1.53-1.5,2.68-.36,1.15-.55,2.67-.55,4.55v54.51h-1.55l-42.31-54.23v42.5c0,1.88.18,3.41.55,4.6s.92,2.09,1.68,2.73c.76.64,1.71,1.06,2.87,1.27,1.15.21,2.55.32,4.19.32v1.55h-18.84v-1.55c1.03,0,2-.11,2.91-.32.91-.21,1.68-.64,2.32-1.27.64-.64,1.14-1.55,1.5-2.73.36-1.18.55-2.71.55-4.6V12.01c0-1.88-.18-3.41-.55-4.6-.36-1.18-.87-2.09-1.5-2.73s-1.41-1.06-2.32-1.27c-.91-.21-1.88-.32-2.91-.32v-1.55h11.56l39.58,50.87V11.92c0-1.88-.18-3.4-.55-4.55-.36-1.15-.86-2.05-1.5-2.68-.64-.64-1.41-1.06-2.32-1.27-.91-.21-1.88-.32-2.91-.32v-1.55h16.83Z"></path><path class="cls-1" d="M309.29,1.55v11.47h-1.64c-.97-2.24-1.99-4-3.05-5.28-1.06-1.27-2.31-2.23-3.73-2.87-1.43-.64-3.11-1.03-5.05-1.18-1.94-.15-4.34-.23-7.19-.23h-5.55c-.85,0-1.65.09-2.41.27-.76.18-1.43.55-2,1.09-.58.55-1.03,1.32-1.36,2.32-.33,1-.5,2.29-.5,3.87v24.02h13.56c1.64,0,2.99-.09,4.05-.27s1.93-.46,2.59-.82c.67-.36,1.18-.85,1.55-1.46.36-.61.67-1.33.91-2.18h1.55v11.47h-1.55c-.24-.85-.55-1.58-.91-2.18-.36-.61-.88-1.09-1.55-1.46-.67-.36-1.53-.64-2.59-.82s-2.41-.27-4.05-.27h-13.56v17.11c0,1.94.17,3.52.5,4.73.33,1.21.83,2.17,1.5,2.87.67.7,1.47,1.18,2.41,1.46.94.27,2.02.41,3.23.41v1.55h-23.29v-1.55c1.09,0,2.09-.14,3-.41.91-.27,1.68-.76,2.32-1.46.64-.7,1.12-1.67,1.46-2.91.33-1.24.5-2.83.5-4.78V12.01c0-1.94-.18-3.49-.55-4.64-.36-1.15-.87-2.05-1.5-2.68s-1.41-1.06-2.32-1.27c-.91-.21-1.88-.32-2.91-.32v-1.55h48.14Z"></path><path class="cls-1" d="M357.07,3.09c-1.03,0-2,.12-2.91.36-.91.24-1.7.68-2.37,1.32-.67.64-1.18,1.53-1.55,2.68-.36,1.15-.55,2.67-.55,4.55v42.86c0,1.88.18,3.4.55,4.55.36,1.15.88,2.03,1.55,2.64.67.61,1.46,1.02,2.37,1.23.91.21,1.88.32,2.91.32v1.55h-23.2v-1.55c1.03,0,2-.11,2.91-.32.91-.21,1.7-.62,2.37-1.23.67-.61,1.2-1.49,1.59-2.64s.59-2.67.59-4.55V12.01c0-1.88-.2-3.41-.59-4.6-.39-1.18-.93-2.09-1.59-2.73-.67-.64-1.46-1.06-2.37-1.27-.91-.21-1.88-.32-2.91-.32v-1.55h23.2v1.55Z"></path><path class="cls-1" d="M440.33,62.61c-1.4.61-2.88,1.24-4.46,1.91-1.58.67-3.18.97-4.82.91-1.94-.06-3.75-.71-5.42-1.96-1.67-1.24-3.25-2.79-4.73-4.64-1.49-1.85-2.97-3.85-4.46-6.01-1.49-2.15-3.03-4.2-4.64-6.14-1.61-1.94-3.37-3.61-5.28-5-1.91-1.4-4.02-2.24-6.32-2.55-.49-.06-.91-.09-1.27-.09h-1v15.74c0,1.88.18,3.41.55,4.59.36,1.18.88,2.08,1.55,2.68.67.61,1.46,1.02,2.37,1.23.91.21,1.88.32,2.91.32v1.55h-23.02v-1.55c1.03,0,2-.11,2.91-.32.91-.21,1.68-.62,2.32-1.23.64-.61,1.14-1.49,1.5-2.64.36-1.15.55-2.67.55-4.55V12.01c0-1.88-.18-3.41-.55-4.6-.36-1.18-.87-2.09-1.5-2.73s-1.41-1.06-2.32-1.27c-.91-.21-1.88-.32-2.91-.32v-1.55h25.84c7.76,0,13.75,1.31,17.97,3.91,4.22,2.61,6.32,7.01,6.32,13.19,0,3.52-.67,6.48-2,8.87-1.33,2.4-3.11,4.35-5.32,5.87-2.21,1.52-4.73,2.65-7.55,3.41-2.82.76-5.72,1.26-8.69,1.5,2.55.49,4.76,1.41,6.64,2.78,1.88,1.37,3.58,2.91,5.1,4.64,1.52,1.73,2.9,3.54,4.14,5.41,1.24,1.88,2.49,3.59,3.73,5.14,1.24,1.55,2.56,2.82,3.96,3.82s2.97,1.5,4.73,1.5c.97,0,1.85-.12,2.64-.36l.55,1.37ZM397.92,36.94c3.52-.12,6.85-.48,10.01-1.09,3.15-.61,5.92-1.64,8.28-3.09,2.37-1.46,4.25-3.38,5.64-5.78,1.4-2.4,2.09-5.38,2.09-8.96,0-5.1-1.41-8.8-4.23-11.1-2.82-2.3-6.75-3.46-11.78-3.46h-4c-.79,0-1.55.11-2.27.32-.73.21-1.37.61-1.91,1.18-.55.58-.99,1.36-1.32,2.37-.33,1-.5,2.29-.5,3.87v25.75Z"></path><path class="cls-1" d="M531.69,3.09c-1.09,0-2.08.12-2.96.36-.88.24-1.64.7-2.27,1.37-.64.67-1.14,1.58-1.5,2.73-.36,1.15-.55,2.67-.55,4.55v42.59c0,1.88.18,3.41.55,4.6s.86,2.09,1.5,2.73c.64.64,1.41,1.06,2.32,1.27.91.21,1.88.32,2.91.32v1.55h-25.21v-1.55c1.58,0,2.97-.11,4.19-.32,1.21-.21,2.21-.64,3-1.27.79-.64,1.38-1.55,1.77-2.73.39-1.18.59-2.71.59-4.6V9.92l-19.66,24.66h-1.73l-20.84-23.57v43.77c0,1.88.2,3.4.59,4.55.39,1.15.99,2.05,1.77,2.68.79.64,1.77,1.06,2.96,1.27,1.18.21,2.56.32,4.14.32v1.55h-19.02v-1.55c1.03,0,2-.11,2.91-.32.91-.21,1.68-.64,2.32-1.27.64-.64,1.14-1.55,1.5-2.73.36-1.18.55-2.71.55-4.6V12.1c0-1.88-.18-3.41-.55-4.59-.36-1.18-.87-2.09-1.5-2.73s-1.41-1.08-2.32-1.32c-.91-.24-1.88-.36-2.91-.36v-1.55h12.56l22.75,25.66,20.47-25.66h11.65v1.55Z"></path><path class="cls-1" d="M610.12,52.87c.97,2.55,1.94,4.55,2.91,6.01.97,1.46,1.91,2.53,2.82,3.23.91.7,1.76,1.12,2.55,1.27.79.15,1.49.23,2.09.23v1.55h-23.48v-1.55c1.58,0,2.87-.39,3.87-1.18,1-.79,1.5-1.88,1.5-3.28,0-.61-.08-1.26-.23-1.96-.15-.7-.38-1.47-.68-2.32l-1.37-3.82h-30.03l-1.46,3.73c-.73,1.7-1.09,3.25-1.09,4.64,0,1.15.42,2.14,1.27,2.96.85.82,2.3,1.23,4.37,1.23v1.55h-18.29v-1.55c2.31,0,4.46-.73,6.46-2.18s3.76-4.09,5.28-7.92L587.65,0h2.91l19.56,52.87ZM599.48,49.05l-13.56-38.86-15.01,38.86h28.57Z"></path><path class="cls-1" d="M743.71,1.55v9.83h-1.64c-.97-1.82-1.99-3.26-3.05-4.32-1.06-1.06-2.31-1.87-3.73-2.41-1.43-.55-3.06-.88-4.91-1-1.85-.12-4.02-.18-6.51-.18v51.5c0,1.82.18,3.31.55,4.46.36,1.15.87,2.03,1.5,2.64.64.61,1.39,1.02,2.27,1.23.88.21,1.83.32,2.87.32v1.55h-22.93v-1.55c1.03,0,2-.11,2.91-.32.91-.21,1.68-.62,2.32-1.23.64-.61,1.14-1.49,1.5-2.64.36-1.15.55-2.64.55-4.46V3.55c-2.61,0-4.87.08-6.78.23-1.91.15-3.56.5-4.96,1.05s-2.59,1.33-3.59,2.37c-1,1.03-1.96,2.43-2.87,4.19h-1.73V1.55h48.23Z"></path><path class="cls-1" d="M831.06,1.55v1.55c-1.09,0-2.09.11-3,.32-.91.21-1.68.64-2.32,1.27s-1.14,1.53-1.5,2.68c-.36,1.15-.55,2.64-.55,4.46v29.85c0,4.13-.7,7.75-2.09,10.87-1.4,3.12-3.26,5.73-5.6,7.83-2.34,2.09-4.97,3.66-7.92,4.69-2.94,1.03-5.96,1.55-9.05,1.55s-6.02-.52-8.96-1.55c-2.94-1.03-5.57-2.58-7.87-4.64-2.31-2.06-4.17-4.64-5.6-7.74-1.43-3.09-2.14-6.7-2.14-10.83V11.92c0-1.82-.17-3.31-.5-4.46-.33-1.15-.82-2.05-1.46-2.68s-1.41-1.08-2.32-1.32c-.91-.24-1.91-.36-3-.36v-1.55h23.02v1.55c-1.09,0-2.09.12-3,.36-.91.24-1.68.68-2.32,1.32-.64.64-1.14,1.53-1.5,2.68-.36,1.15-.55,2.64-.55,4.46v29.76c0,3.46.51,6.45,1.55,8.96,1.03,2.52,2.41,4.59,4.14,6.23,1.73,1.64,3.68,2.85,5.87,3.64,2.18.79,4.46,1.18,6.82,1.18,2.49,0,4.93-.44,7.33-1.32,2.4-.88,4.55-2.15,6.46-3.82,1.91-1.67,3.46-3.75,4.64-6.23,1.18-2.49,1.77-5.34,1.77-8.55V11.83c0-1.82-.17-3.31-.5-4.46-.33-1.15-.82-2.05-1.46-2.68s-1.41-1.06-2.32-1.27c-.91-.21-1.91-.32-3-.32v-1.55h16.93Z"></path><path class="cls-1" d="M116.75,172.06c.97,2.55,1.94,4.55,2.91,6.01.97,1.46,1.91,2.53,2.82,3.23.91.7,1.76,1.12,2.55,1.27.79.15,1.49.23,2.09.23v1.55h-23.48v-1.55c1.58,0,2.87-.39,3.87-1.18,1-.79,1.5-1.88,1.5-3.28,0-.61-.08-1.26-.23-1.96-.15-.7-.38-1.47-.68-2.32l-1.37-3.82h-30.03l-1.46,3.73c-.73,1.7-1.09,3.25-1.09,4.64,0,1.15.42,2.14,1.27,2.96.85.82,2.3,1.23,4.37,1.23v1.55h-18.29v-1.55c2.31,0,4.46-.73,6.46-2.18s3.76-4.09,5.28-7.92l21.02-53.51h2.91l19.56,52.87ZM106.1,168.24l-13.56-38.86-15.01,38.86h28.57Z"></path><path class="cls-1" d="M160.97,131.93c0,2.06.86,3.94,2.59,5.64,1.73,1.7,3.9,3.32,6.51,4.87,2.61,1.55,5.41,3.12,8.42,4.73,3,1.61,5.81,3.34,8.42,5.19,2.61,1.85,4.78,3.93,6.51,6.23,1.73,2.31,2.59,4.95,2.59,7.92,0,3.52-.55,6.48-1.64,8.87-1.09,2.4-2.64,4.31-4.64,5.73-2,1.43-4.37,2.44-7.1,3.05-2.73.61-5.73.91-9.01.91s-6.61-.26-10.37-.77c-3.76-.51-7.71-1.17-11.83-1.96v-12.38h1.73c2.24,4.31,5.14,7.42,8.69,9.33,3.55,1.91,7.45,2.87,11.69,2.87,2,0,3.85-.26,5.55-.77,1.7-.51,3.18-1.27,4.46-2.28,1.27-1,2.27-2.26,3-3.78.73-1.52,1.09-3.28,1.09-5.28,0-2.85-.83-5.31-2.5-7.37-1.67-2.06-3.78-3.93-6.32-5.6-2.55-1.67-5.28-3.25-8.19-4.73-2.91-1.49-5.64-3.06-8.19-4.73-2.55-1.67-4.66-3.53-6.32-5.6-1.67-2.06-2.5-4.52-2.5-7.37s.61-5.31,1.82-7.19c1.21-1.88,2.81-3.37,4.78-4.46,1.97-1.09,4.22-1.83,6.73-2.23,2.52-.39,5.11-.59,7.78-.59,2.49,0,5.05.14,7.69.41,2.64.27,5.11.56,7.42.86v10.01h-1.64c-1.76-2.97-4-5.14-6.73-6.51-2.73-1.37-5.7-2.05-8.92-2.05-1.52,0-2.97.18-4.37.55-1.4.36-2.62.91-3.68,1.64-1.06.73-1.91,1.65-2.55,2.78-.64,1.12-.96,2.47-.96,4.05Z"></path><path class="cls-1" d="M244.14,122.29c-1.03,0-2,.12-2.91.36-.91.24-1.7.68-2.37,1.32-.67.64-1.18,1.53-1.55,2.68-.36,1.15-.55,2.67-.55,4.55v42.86c0,1.88.18,3.4.55,4.55.36,1.15.88,2.03,1.55,2.64.67.61,1.46,1.02,2.37,1.23.91.21,1.88.32,2.91.32v1.55h-23.2v-1.55c1.03,0,2-.11,2.91-.32.91-.21,1.7-.62,2.37-1.23.67-.61,1.2-1.49,1.59-2.64s.59-2.67.59-4.55v-42.86c0-1.88-.2-3.41-.59-4.6-.39-1.18-.93-2.09-1.59-2.73-.67-.64-1.46-1.06-2.37-1.27-.91-.21-1.88-.32-2.91-.32v-1.55h23.2v1.55Z"></path><path class="cls-1" d="M279.9,131.93c0,2.06.86,3.94,2.59,5.64,1.73,1.7,3.9,3.32,6.51,4.87,2.61,1.55,5.41,3.12,8.42,4.73,3,1.61,5.81,3.34,8.42,5.19,2.61,1.85,4.78,3.93,6.51,6.23,1.73,2.31,2.59,4.95,2.59,7.92,0,3.52-.55,6.48-1.64,8.87-1.09,2.4-2.64,4.31-4.64,5.73-2,1.43-4.37,2.44-7.1,3.05-2.73.61-5.73.91-9.01.91s-6.61-.26-10.37-.77c-3.76-.51-7.71-1.17-11.83-1.96v-12.38h1.73c2.24,4.31,5.14,7.42,8.69,9.33,3.55,1.91,7.45,2.87,11.69,2.87,2,0,3.85-.26,5.55-.77,1.7-.51,3.18-1.27,4.46-2.28,1.27-1,2.27-2.26,3-3.78.73-1.52,1.09-3.28,1.09-5.28,0-2.85-.83-5.31-2.5-7.37-1.67-2.06-3.78-3.93-6.32-5.6-2.55-1.67-5.28-3.25-8.19-4.73-2.91-1.49-5.64-3.06-8.19-4.73-2.55-1.67-4.66-3.53-6.32-5.6-1.67-2.06-2.5-4.52-2.5-7.37s.61-5.31,1.82-7.19c1.21-1.88,2.81-3.37,4.78-4.46,1.97-1.09,4.22-1.83,6.73-2.23,2.52-.39,5.11-.59,7.78-.59,2.49,0,5.05.14,7.69.41,2.64.27,5.11.56,7.42.86v10.01h-1.64c-1.76-2.97-4-5.14-6.73-6.51-2.73-1.37-5.7-2.05-8.92-2.05-1.52,0-2.97.18-4.37.55-1.4.36-2.62.91-3.68,1.64-1.06.73-1.91,1.65-2.55,2.78-.64,1.12-.96,2.47-.96,4.05Z"></path><path class="cls-1" d="M386.55,120.74v9.83h-1.64c-.97-1.82-1.99-3.26-3.05-4.32-1.06-1.06-2.31-1.87-3.73-2.41-1.43-.55-3.06-.88-4.91-1-1.85-.12-4.02-.18-6.51-.18v51.5c0,1.82.18,3.31.55,4.46.36,1.15.87,2.03,1.5,2.64.64.61,1.39,1.02,2.27,1.23.88.21,1.83.32,2.87.32v1.55h-22.93v-1.55c1.03,0,2-.11,2.91-.32.91-.21,1.68-.62,2.32-1.23.64-.61,1.14-1.49,1.5-2.64.36-1.15.55-2.64.55-4.46v-51.41c-2.61,0-4.87.08-6.78.23-1.91.15-3.56.5-4.96,1.05s-2.59,1.33-3.59,2.37c-1,1.03-1.96,2.43-2.87,4.19h-1.73v-9.83h48.23Z"></path><path class="cls-1" d="M460.98,172.79v11.56h-50.32v-1.55c1.03,0,2-.09,2.91-.27.91-.18,1.68-.59,2.32-1.23.64-.64,1.14-1.53,1.5-2.68.36-1.15.55-2.67.55-4.55v-42.86c0-1.88-.18-3.41-.55-4.6-.36-1.18-.87-2.09-1.5-2.73s-1.41-1.06-2.32-1.27c-.91-.21-1.88-.32-2.91-.32v-1.55h48.14v11.47h-1.64c-.97-2.24-1.99-4-3.05-5.28-1.06-1.27-2.31-2.23-3.73-2.87-1.43-.64-3.14-1.03-5.14-1.18-2-.15-4.43-.23-7.28-.23h-5.64c-.79,0-1.55.11-2.27.32-.73.21-1.37.59-1.91,1.14s-.99,1.32-1.32,2.32c-.33,1-.5,2.29-.5,3.87v21.75h13.47c1.64,0,2.97-.09,4-.27,1.03-.18,1.89-.46,2.59-.82.7-.36,1.24-.85,1.64-1.46.39-.61.71-1.33.96-2.18h1.55v11.46h-1.64c-.49-1.7-1.32-2.91-2.5-3.64-1.18-.73-3.38-1.09-6.6-1.09h-13.47v21.38c0,1.94.47,3.58,1.41,4.91.94,1.33,2.68,2,5.23,2h7.28c2.85,0,5.25-.08,7.19-.23,1.94-.15,3.64-.55,5.1-1.18s2.71-1.59,3.78-2.87c1.06-1.27,2.08-3.03,3.05-5.28h1.64Z"></path><path class="cls-1" d="M547.15,120.74v1.55c-1.03,0-2,.11-2.91.32-.91.21-1.68.64-2.32,1.27-.64.64-1.14,1.53-1.5,2.68-.36,1.15-.55,2.67-.55,4.55v54.51h-1.55l-42.31-54.23v42.5c0,1.88.18,3.41.55,4.6s.92,2.09,1.68,2.73c.76.64,1.71,1.06,2.87,1.27,1.15.21,2.55.32,4.19.32v1.55h-18.84v-1.55c1.03,0,2-.11,2.91-.32.91-.21,1.68-.64,2.32-1.27.64-.64,1.14-1.55,1.5-2.73.36-1.18.55-2.71.55-4.6v-42.68c0-1.88-.18-3.41-.55-4.6-.36-1.18-.87-2.09-1.5-2.73s-1.41-1.06-2.32-1.27c-.91-.21-1.88-.32-2.91-.32v-1.55h11.56l39.58,50.87v-40.49c0-1.88-.18-3.4-.55-4.55-.36-1.15-.86-2.05-1.5-2.68-.64-.64-1.41-1.06-2.32-1.27-.91-.21-1.88-.32-2.91-.32v-1.55h16.83Z"></path><path class="cls-1" d="M631.23,163.88c-1.09,3.64-2.58,6.79-4.46,9.46-1.88,2.67-4.07,4.88-6.55,6.64-2.49,1.76-5.2,3.06-8.14,3.91s-5.96,1.27-9.05,1.27c-3.82,0-7.6-.68-11.33-2.05s-7.05-3.4-9.96-6.1c-2.91-2.7-5.28-6.05-7.1-10.05-1.82-4-2.73-8.67-2.73-14.01,0-6.37.94-11.66,2.82-15.88,1.88-4.22,4.4-7.58,7.55-10.1,3.15-2.52,6.84-4.31,11.06-5.37,4.22-1.06,8.63-1.59,13.24-1.59,2.97,0,6.07.21,9.28.64,3.21.42,6.49.97,9.83,1.64v12.19h-1.55c-2.18-4.19-5.07-7.25-8.64-9.19-3.58-1.94-7.46-2.91-11.65-2.91-2.91,0-5.78.55-8.6,1.64-2.82,1.09-5.34,2.75-7.55,4.96s-4.02,4.99-5.41,8.33c-1.4,3.34-2.09,7.25-2.09,11.74,0,5.34.77,9.96,2.32,13.88s3.56,7.14,6.05,9.69c2.49,2.55,5.31,4.44,8.46,5.69,3.15,1.24,6.34,1.87,9.55,1.87,2.55,0,5.02-.35,7.42-1.05,2.4-.7,4.6-1.76,6.6-3.18,2-1.42,3.76-3.18,5.28-5.28,1.52-2.09,2.7-4.5,3.55-7.23l1.82.46Z"></path><path class="cls-1" d="M678.28,122.29c-1.03,0-2,.12-2.91.36-.91.24-1.7.68-2.37,1.32-.67.64-1.18,1.53-1.55,2.68-.36,1.15-.55,2.67-.55,4.55v42.86c0,1.88.18,3.4.55,4.55.36,1.15.88,2.03,1.55,2.64.67.61,1.46,1.02,2.37,1.23.91.21,1.88.32,2.91.32v1.55h-23.2v-1.55c1.03,0,2-.11,2.91-.32.91-.21,1.7-.62,2.37-1.23.67-.61,1.2-1.49,1.59-2.64s.59-2.67.59-4.55v-42.86c0-1.88-.2-3.41-.59-4.6-.39-1.18-.93-2.09-1.59-2.73-.67-.64-1.46-1.06-2.37-1.27-.91-.21-1.88-.32-2.91-.32v-1.55h23.2v1.55Z"></path><path class="cls-1" d="M756.81,172.06c.97,2.55,1.94,4.55,2.91,6.01.97,1.46,1.91,2.53,2.82,3.23.91.7,1.76,1.12,2.55,1.27.79.15,1.49.23,2.09.23v1.55h-23.48v-1.55c1.58,0,2.87-.39,3.87-1.18,1-.79,1.5-1.88,1.5-3.28,0-.61-.08-1.26-.23-1.96-.15-.7-.38-1.47-.68-2.32l-1.37-3.82h-30.03l-1.46,3.73c-.73,1.7-1.09,3.25-1.09,4.64,0,1.15.42,2.14,1.27,2.96.85.82,2.3,1.23,4.37,1.23v1.55h-18.29v-1.55c2.31,0,4.46-.73,6.46-2.18s3.76-4.09,5.28-7.92l21.02-53.51h2.91l19.56,52.87ZM746.16,168.24l-13.56-38.86-15.01,38.86h28.57Z"></path></g></g></svg>