<svg xmlns="http://www.w3.org/2000/svg" id="Capa_2" viewBox="0 0 702.88 58.24"><defs><style>      .cls-1 {        fill: #fff;      }    </style></defs><g id="Capa_1-2" data-name="Capa_1"><g><path class="cls-1" d="M22.56,1.2c9.6,0,17.03,2.35,22.28,7.04,5.25,4.69,7.88,11.36,7.88,20,0,4.21-.65,8.09-1.96,11.64-1.31,3.55-3.23,6.6-5.76,9.16-2.53,2.56-5.67,4.55-9.4,5.96-3.73,1.41-8.03,2.12-12.88,2.12H0v-1.36c.91,0,1.76-.09,2.56-.28.8-.19,1.48-.56,2.04-1.12.56-.56,1-1.36,1.32-2.4.32-1.04.48-2.39.48-4.04V10.4c0-1.65-.16-3-.48-4.04-.32-1.04-.76-1.84-1.32-2.4-.56-.56-1.24-.93-2.04-1.12-.8-.19-1.65-.28-2.56-.28v-1.36h22.56ZM22.8,55.36c3.57,0,6.73-.67,9.48-2,2.75-1.33,5.05-3.19,6.92-5.56,1.87-2.37,3.28-5.19,4.24-8.44.96-3.25,1.44-6.83,1.44-10.72s-.49-7.51-1.48-10.68c-.99-3.17-2.44-5.88-4.36-8.12-1.92-2.24-4.25-3.96-7-5.16-2.75-1.2-5.88-1.8-9.4-1.8h-3.68c-.69,0-1.35.08-1.96.24-.61.16-1.16.48-1.64.96-.48.48-.87,1.13-1.16,1.96-.29.83-.44,1.91-.44,3.24v40.08c0,1.65.36,3.07,1.08,4.24.72,1.17,2.09,1.76,4.12,1.76h3.84Z"></path><path class="cls-1" d="M130.24,54.88c-1.23.53-2.53,1.09-3.92,1.68-1.39.59-2.8.85-4.24.8-1.71-.05-3.29-.63-4.76-1.72-1.47-1.09-2.85-2.45-4.16-4.08-1.31-1.63-2.61-3.39-3.92-5.28-1.31-1.89-2.67-3.69-4.08-5.4-1.41-1.71-2.96-3.17-4.64-4.4-1.68-1.23-3.53-1.97-5.56-2.24-.43-.05-.8-.08-1.12-.08h-.88v13.84c0,1.65.16,3,.48,4.04.32,1.04.77,1.83,1.36,2.36.59.53,1.28.89,2.08,1.08.8.19,1.65.28,2.56.28v1.36h-20.24v-1.36c.91,0,1.76-.09,2.56-.28.8-.19,1.48-.55,2.04-1.08s1-1.31,1.32-2.32c.32-1.01.48-2.35.48-4V10.4c0-1.65-.16-3-.48-4.04-.32-1.04-.76-1.84-1.32-2.4-.56-.56-1.24-.93-2.04-1.12-.8-.19-1.65-.28-2.56-.28v-1.36h22.72c6.83,0,12.09,1.15,15.8,3.44,3.71,2.29,5.56,6.16,5.56,11.6,0,3.09-.59,5.69-1.76,7.8-1.17,2.11-2.73,3.83-4.68,5.16-1.95,1.33-4.16,2.33-6.64,3-2.48.67-5.03,1.11-7.64,1.32,2.24.43,4.19,1.24,5.84,2.44s3.15,2.56,4.48,4.08c1.33,1.52,2.55,3.11,3.64,4.76,1.09,1.65,2.19,3.16,3.28,4.52,1.09,1.36,2.25,2.48,3.48,3.36,1.23.88,2.61,1.32,4.16,1.32.85,0,1.63-.11,2.32-.32l.48,1.2ZM92.96,32.32c3.09-.11,6.03-.43,8.8-.96,2.77-.53,5.2-1.44,7.28-2.72,2.08-1.28,3.73-2.97,4.96-5.08,1.23-2.11,1.84-4.73,1.84-7.88,0-4.48-1.24-7.73-3.72-9.76-2.48-2.03-5.93-3.04-10.36-3.04h-3.52c-.69,0-1.36.09-2,.28-.64.19-1.2.53-1.68,1.04-.48.51-.87,1.2-1.16,2.08s-.44,2.01-.44,3.4v22.64Z"></path><path class="cls-1" d="M200.32,46.96v10.16h-44.24v-1.36c.91,0,1.76-.08,2.56-.24.8-.16,1.48-.52,2.04-1.08.56-.56,1-1.35,1.32-2.36.32-1.01.48-2.35.48-4V10.4c0-1.65-.16-3-.48-4.04-.32-1.04-.76-1.84-1.32-2.4-.56-.56-1.24-.93-2.04-1.12-.8-.19-1.65-.28-2.56-.28v-1.36h42.32v10.08h-1.44c-.85-1.97-1.75-3.52-2.68-4.64-.93-1.12-2.03-1.96-3.28-2.52-1.25-.56-2.76-.91-4.52-1.04-1.76-.13-3.89-.2-6.4-.2h-4.96c-.69,0-1.36.09-2,.28-.64.19-1.2.52-1.68,1s-.87,1.16-1.16,2.04-.44,2.01-.44,3.4v19.12h11.84c1.44,0,2.61-.08,3.52-.24.91-.16,1.67-.4,2.28-.72.61-.32,1.09-.75,1.44-1.28.35-.53.63-1.17.84-1.92h1.36v10.08h-1.44c-.43-1.49-1.16-2.56-2.2-3.2-1.04-.64-2.97-.96-5.8-.96h-11.84v18.8c0,1.71.41,3.15,1.24,4.32.83,1.17,2.36,1.76,4.6,1.76h6.4c2.51,0,4.61-.07,6.32-.2,1.71-.13,3.2-.48,4.48-1.04,1.28-.56,2.39-1.4,3.32-2.52.93-1.12,1.83-2.67,2.68-4.64h1.44Z"></path><path class="cls-1" d="M236.8,11.04c0,1.81.76,3.47,2.28,4.96,1.52,1.49,3.43,2.92,5.72,4.28,2.29,1.36,4.76,2.75,7.4,4.16s5.11,2.93,7.4,4.56c2.29,1.63,4.2,3.45,5.72,5.48,1.52,2.03,2.28,4.35,2.28,6.96,0,3.09-.48,5.69-1.44,7.8-.96,2.11-2.32,3.79-4.08,5.04-1.76,1.25-3.84,2.15-6.24,2.68-2.4.53-5.04.8-7.92.8s-5.81-.23-9.12-.68c-3.31-.45-6.77-1.03-10.4-1.72v-10.88h1.52c1.97,3.79,4.52,6.52,7.64,8.2,3.12,1.68,6.55,2.52,10.28,2.52,1.76,0,3.39-.23,4.88-.68s2.8-1.12,3.92-2c1.12-.88,2-1.99,2.64-3.32.64-1.33.96-2.88.96-4.64,0-2.51-.73-4.67-2.2-6.48-1.47-1.81-3.32-3.45-5.56-4.92-2.24-1.47-4.64-2.85-7.2-4.16-2.56-1.31-4.96-2.69-7.2-4.16-2.24-1.47-4.09-3.11-5.56-4.92-1.47-1.81-2.2-3.97-2.2-6.48s.53-4.67,1.6-6.32c1.07-1.65,2.47-2.96,4.2-3.92,1.73-.96,3.71-1.61,5.92-1.96,2.21-.35,4.49-.52,6.84-.52,2.19,0,4.44.12,6.76.36,2.32.24,4.49.49,6.52.76v8.8h-1.44c-1.55-2.61-3.52-4.52-5.92-5.72-2.4-1.2-5.01-1.8-7.84-1.8-1.33,0-2.61.16-3.84.48-1.23.32-2.31.8-3.24,1.44-.93.64-1.68,1.45-2.24,2.44-.56.99-.84,2.17-.84,3.56Z"></path><path class="cls-1" d="M304.48,11.04c0,1.81.76,3.47,2.28,4.96,1.52,1.49,3.43,2.92,5.72,4.28,2.29,1.36,4.76,2.75,7.4,4.16s5.11,2.93,7.4,4.56c2.29,1.63,4.2,3.45,5.72,5.48,1.52,2.03,2.28,4.35,2.28,6.96,0,3.09-.48,5.69-1.44,7.8-.96,2.11-2.32,3.79-4.08,5.04-1.76,1.25-3.84,2.15-6.24,2.68-2.4.53-5.04.8-7.92.8s-5.81-.23-9.12-.68c-3.31-.45-6.77-1.03-10.4-1.72v-10.88h1.52c1.97,3.79,4.52,6.52,7.64,8.2,3.12,1.68,6.55,2.52,10.28,2.52,1.76,0,3.39-.23,4.88-.68s2.8-1.12,3.92-2c1.12-.88,2-1.99,2.64-3.32.64-1.33.96-2.88.96-4.64,0-2.51-.73-4.67-2.2-6.48-1.47-1.81-3.32-3.45-5.56-4.92-2.24-1.47-4.64-2.85-7.2-4.16-2.56-1.31-4.96-2.69-7.2-4.16-2.24-1.47-4.09-3.11-5.56-4.92-1.47-1.81-2.2-3.97-2.2-6.48s.53-4.67,1.6-6.32c1.07-1.65,2.47-2.96,4.2-3.92,1.73-.96,3.71-1.61,5.92-1.96,2.21-.35,4.49-.52,6.84-.52,2.19,0,4.44.12,6.76.36,2.32.24,4.49.49,6.52.76v8.8h-1.44c-1.55-2.61-3.52-4.52-5.92-5.72-2.4-1.2-5.01-1.8-7.84-1.8-1.33,0-2.61.16-3.84.48-1.23.32-2.31.8-3.24,1.44-.93.64-1.68,1.45-2.24,2.44-.56.99-.84,2.17-.84,3.56Z"></path><path class="cls-1" d="M467.6,39.12c-.96,3.2-2.27,5.97-3.92,8.32-1.65,2.35-3.57,4.29-5.76,5.84-2.19,1.55-4.57,2.69-7.16,3.44-2.59.75-5.24,1.12-7.96,1.12-3.36,0-6.68-.6-9.96-1.8-3.28-1.2-6.2-2.99-8.76-5.36-2.56-2.37-4.64-5.32-6.24-8.84-1.6-3.52-2.4-7.63-2.4-12.32,0-5.6.83-10.25,2.48-13.96,1.65-3.71,3.87-6.67,6.64-8.88,2.77-2.21,6.01-3.79,9.72-4.72,3.71-.93,7.59-1.4,11.64-1.4,2.61,0,5.33.19,8.16.56,2.83.37,5.71.85,8.64,1.44v10.72h-1.36c-1.92-3.68-4.45-6.37-7.6-8.08-3.15-1.71-6.56-2.56-10.24-2.56-2.56,0-5.08.48-7.56,1.44-2.48.96-4.69,2.41-6.64,4.36s-3.53,4.39-4.76,7.32c-1.23,2.93-1.84,6.37-1.84,10.32,0,4.69.68,8.76,2.04,12.2,1.36,3.44,3.13,6.28,5.32,8.52,2.19,2.24,4.67,3.91,7.44,5,2.77,1.09,5.57,1.64,8.4,1.64,2.24,0,4.41-.31,6.52-.92,2.11-.61,4.04-1.55,5.8-2.8,1.76-1.25,3.31-2.8,4.64-4.64,1.33-1.84,2.37-3.96,3.12-6.36l1.6.4Z"></path><path class="cls-1" d="M495.83,29.12c0-4.85.83-9.11,2.48-12.76,1.65-3.65,3.81-6.69,6.48-9.12,2.67-2.43,5.71-4.24,9.12-5.44,3.41-1.2,6.91-1.8,10.48-1.8s7.07.6,10.48,1.8c3.41,1.2,6.47,3.01,9.16,5.44,2.69,2.43,4.85,5.47,6.48,9.12,1.63,3.65,2.44,7.91,2.44,12.76s-.81,9.09-2.44,12.72c-1.63,3.63-3.79,6.65-6.48,9.08-2.69,2.43-5.75,4.25-9.16,5.48-3.41,1.23-6.91,1.84-10.48,1.84s-7.07-.6-10.48-1.8c-3.41-1.2-6.45-3.01-9.12-5.44-2.67-2.43-4.83-5.47-6.48-9.12-1.65-3.65-2.48-7.91-2.48-12.76ZM503.28,25.84c0,3.47.48,7,1.44,10.6.96,3.6,2.39,6.87,4.28,9.8,1.89,2.93,4.24,5.33,7.04,7.2,2.8,1.87,6.04,2.8,9.72,2.8,2.72,0,5.28-.56,7.68-1.68,2.4-1.12,4.51-2.72,6.32-4.8,1.81-2.08,3.24-4.59,4.28-7.52,1.04-2.93,1.56-6.21,1.56-9.84s-.49-7-1.48-10.6c-.99-3.6-2.43-6.87-4.32-9.8-1.89-2.93-4.24-5.33-7.04-7.2-2.8-1.87-6.04-2.8-9.72-2.8-2.72,0-5.27.56-7.64,1.68-2.37,1.12-4.47,2.72-6.28,4.8-1.81,2.08-3.24,4.59-4.28,7.52-1.04,2.93-1.56,6.21-1.56,9.84Z"></path><path class="cls-1" d="M602,1.2c9.6,0,17.03,2.35,22.28,7.04,5.25,4.69,7.88,11.36,7.88,20,0,4.21-.65,8.09-1.96,11.64-1.31,3.55-3.23,6.6-5.76,9.16-2.53,2.56-5.67,4.55-9.4,5.96-3.73,1.41-8.03,2.12-12.88,2.12h-22.72v-1.36c.91,0,1.76-.09,2.56-.28.8-.19,1.48-.56,2.04-1.12.56-.56,1-1.36,1.32-2.4.32-1.04.48-2.39.48-4.04V10.4c0-1.65-.16-3-.48-4.04-.32-1.04-.76-1.84-1.32-2.4-.56-.56-1.24-.93-2.04-1.12-.8-.19-1.65-.28-2.56-.28v-1.36h22.56ZM602.24,55.36c3.57,0,6.73-.67,9.48-2,2.75-1.33,5.05-3.19,6.92-5.56,1.87-2.37,3.28-5.19,4.24-8.44.96-3.25,1.44-6.83,1.44-10.72s-.49-7.51-1.48-10.68c-.99-3.17-2.44-5.88-4.36-8.12-1.92-2.24-4.25-3.96-7-5.16-2.75-1.2-5.88-1.8-9.4-1.8h-3.68c-.69,0-1.35.08-1.96.24-.61.16-1.16.48-1.64.96-.48.48-.87,1.13-1.16,1.96-.29.83-.44,1.91-.44,3.24v40.08c0,1.65.36,3.07,1.08,4.24.72,1.17,2.09,1.76,4.12,1.76h3.84Z"></path><path class="cls-1" d="M702.88,46.96v10.16h-44.24v-1.36c.91,0,1.76-.08,2.56-.24.8-.16,1.48-.52,2.04-1.08.56-.56,1-1.35,1.32-2.36.32-1.01.48-2.35.48-4V10.4c0-1.65-.16-3-.48-4.04-.32-1.04-.76-1.84-1.32-2.4-.56-.56-1.24-.93-2.04-1.12-.8-.19-1.65-.28-2.56-.28v-1.36h42.32v10.08h-1.44c-.85-1.97-1.75-3.52-2.68-4.64-.93-1.12-2.03-1.96-3.28-2.52-1.25-.56-2.76-.91-4.52-1.04-1.76-.13-3.89-.2-6.4-.2h-4.96c-.69,0-1.36.09-2,.28-.64.19-1.2.52-1.68,1s-.87,1.16-1.16,2.04-.44,2.01-.44,3.4v19.12h11.84c1.44,0,2.61-.08,3.52-.24.91-.16,1.67-.4,2.28-.72.61-.32,1.09-.75,1.44-1.28.35-.53.63-1.17.84-1.92h1.36v10.08h-1.44c-.43-1.49-1.16-2.56-2.2-3.2-1.04-.64-2.97-.96-5.8-.96h-11.84v18.8c0,1.71.41,3.15,1.24,4.32.83,1.17,2.36,1.76,4.6,1.76h6.4c2.51,0,4.61-.07,6.32-.2,1.71-.13,3.2-.48,4.48-1.04,1.28-.56,2.39-1.4,3.32-2.52.93-1.12,1.83-2.67,2.68-4.64h1.44Z"></path></g></g></svg>