<svg xmlns="http://www.w3.org/2000/svg" id="Capa_2" viewBox="0 0 506.21 82.26"><defs><style>      .cls-1 {        fill: #a58a45;      }    </style></defs><g id="Capa_1-2" data-name="Capa_1"><g><path class="cls-1" d="M39.49,66.15v13.74c-3.28.67-6.46,1.23-9.55,1.68-3.09.45-6.16.68-9.19.68s-5.72-.26-8.24-.77c-2.52-.52-4.7-1.4-6.55-2.64-1.85-1.24-3.31-2.87-4.37-4.87-1.06-2-1.59-4.49-1.59-7.46,0-3.21.58-5.97,1.73-8.28,1.15-2.3,2.59-4.35,4.32-6.14,1.73-1.79,3.61-3.47,5.64-5.05,2.03-1.58,3.91-3.23,5.64-4.96,1.73-1.73,3.17-3.65,4.32-5.78,1.15-2.12,1.73-4.67,1.73-7.64h2.73c.42,1.94.64,3.79.64,5.55,0,2.79-.46,5.22-1.37,7.28-.91,2.06-2.05,3.93-3.41,5.6-1.37,1.67-2.85,3.25-4.46,4.73-1.61,1.49-3.09,3.03-4.46,4.64-1.36,1.61-2.5,3.38-3.41,5.32-.91,1.94-1.36,4.22-1.36,6.82,0,1.82.32,3.38.96,4.69.64,1.3,1.49,2.38,2.55,3.23,1.06.85,2.29,1.49,3.69,1.91,1.39.42,2.85.64,4.37.64,1.82,0,3.64-.27,5.46-.82,1.82-.55,3.55-1.36,5.19-2.46,1.64-1.09,3.09-2.44,4.37-4.05,1.27-1.61,2.28-3.47,3-5.6h1.64ZM24.75,26.3c-1.46,0-2.72-.47-3.78-1.41-1.06-.94-1.59-2.11-1.59-3.5s.55-2.67,1.64-3.64c1.09-.97,2.37-1.46,3.82-1.46s2.68.49,3.69,1.46c1,.97,1.5,2.15,1.5,3.55s-.52,2.58-1.55,3.55c-1.03.97-2.27,1.46-3.73,1.46Z"></path><path class="cls-1" d="M83.72,3.28c10.92,0,19.37,2.67,25.34,8.01,5.97,5.34,8.96,12.92,8.96,22.75,0,4.79-.74,9.21-2.23,13.24-1.49,4.04-3.67,7.51-6.55,10.42-2.88,2.91-6.45,5.17-10.69,6.78-4.25,1.61-9.13,2.41-14.65,2.41h-25.84v-1.55c1.03,0,2-.11,2.91-.32.91-.21,1.68-.64,2.32-1.27.64-.64,1.14-1.55,1.5-2.73.36-1.18.55-2.71.55-4.6V13.74c0-1.88-.18-3.41-.55-4.6-.36-1.18-.87-2.09-1.5-2.73s-1.41-1.06-2.32-1.27c-.91-.21-1.88-.32-2.91-.32v-1.55h25.66ZM83.99,64.88c4.06,0,7.66-.76,10.78-2.27,3.12-1.52,5.75-3.62,7.87-6.32,2.12-2.7,3.73-5.9,4.82-9.6,1.09-3.7,1.64-7.76,1.64-12.19s-.56-8.54-1.68-12.15c-1.12-3.61-2.78-6.69-4.96-9.24s-4.84-4.5-7.96-5.87c-3.12-1.37-6.69-2.05-10.69-2.05h-4.19c-.79,0-1.53.09-2.23.27-.7.18-1.32.55-1.87,1.09s-.99,1.29-1.32,2.23c-.33.94-.5,2.17-.5,3.68v45.59c0,1.88.41,3.49,1.23,4.82.82,1.33,2.38,2,4.69,2h4.37Z"></path><path class="cls-1" d="M206.29,3.28v1.55c-1.09,0-2.09.11-3,.32-.91.21-1.68.64-2.32,1.27s-1.14,1.53-1.5,2.68c-.36,1.15-.55,2.64-.55,4.46v29.85c0,4.13-.7,7.75-2.09,10.87-1.4,3.12-3.26,5.73-5.6,7.83-2.34,2.09-4.97,3.66-7.92,4.69-2.94,1.03-5.96,1.55-9.05,1.55s-6.02-.52-8.96-1.55c-2.94-1.03-5.57-2.58-7.87-4.64-2.31-2.06-4.17-4.64-5.6-7.74-1.43-3.09-2.14-6.7-2.14-10.83V13.65c0-1.82-.17-3.31-.5-4.46-.33-1.15-.82-2.05-1.46-2.68s-1.41-1.08-2.32-1.32c-.91-.24-1.91-.36-3-.36v-1.55h23.02v1.55c-1.09,0-2.09.12-3,.36-.91.24-1.68.68-2.32,1.32-.64.64-1.14,1.53-1.5,2.68-.36,1.15-.55,2.64-.55,4.46v29.76c0,3.46.51,6.45,1.55,8.96,1.03,2.52,2.41,4.59,4.14,6.23,1.73,1.64,3.68,2.85,5.87,3.64,2.18.79,4.46,1.18,6.82,1.18,2.49,0,4.93-.44,7.33-1.32,2.4-.88,4.55-2.15,6.46-3.82,1.91-1.67,3.46-3.75,4.64-6.23,1.18-2.49,1.77-5.34,1.77-8.55V13.56c0-1.82-.17-3.31-.5-4.46-.33-1.15-.82-2.05-1.46-2.68s-1.41-1.06-2.32-1.27c-.91-.21-1.91-.32-3-.32v-1.55h16.92Z"></path><path class="cls-1" d="M256.43,3.28c10.92,0,19.37,2.67,25.34,8.01,5.97,5.34,8.96,12.92,8.96,22.75,0,4.79-.74,9.21-2.23,13.24-1.49,4.04-3.67,7.51-6.55,10.42-2.88,2.91-6.45,5.17-10.69,6.78-4.25,1.61-9.13,2.41-14.65,2.41h-25.84v-1.55c1.03,0,2-.11,2.91-.32.91-.21,1.68-.64,2.32-1.27.64-.64,1.14-1.55,1.5-2.73.36-1.18.55-2.71.55-4.6V13.74c0-1.88-.18-3.41-.55-4.6-.36-1.18-.87-2.09-1.5-2.73s-1.41-1.06-2.32-1.27c-.91-.21-1.88-.32-2.91-.32v-1.55h25.66ZM256.7,64.88c4.06,0,7.66-.76,10.78-2.27,3.12-1.52,5.75-3.62,7.87-6.32,2.12-2.7,3.73-5.9,4.82-9.6,1.09-3.7,1.64-7.76,1.64-12.19s-.56-8.54-1.68-12.15c-1.12-3.61-2.78-6.69-4.96-9.24s-4.84-4.5-7.96-5.87c-3.12-1.37-6.69-2.05-10.69-2.05h-4.19c-.79,0-1.53.09-2.23.27-.7.18-1.32.55-1.87,1.09s-.99,1.29-1.32,2.23c-.33.94-.5,2.17-.5,3.68v45.59c0,1.88.41,3.49,1.23,4.82.82,1.33,2.38,2,4.69,2h4.37Z"></path><path class="cls-1" d="M363.07,54.6c.97,2.55,1.94,4.55,2.91,6.01.97,1.46,1.91,2.53,2.82,3.23.91.7,1.76,1.12,2.55,1.27.79.15,1.49.23,2.09.23v1.55h-23.48v-1.55c1.58,0,2.87-.39,3.87-1.18,1-.79,1.5-1.88,1.5-3.28,0-.61-.08-1.26-.23-1.96-.15-.7-.38-1.47-.68-2.32l-1.37-3.82h-30.03l-1.46,3.73c-.73,1.7-1.09,3.25-1.09,4.64,0,1.15.42,2.14,1.27,2.96.85.82,2.3,1.23,4.37,1.23v1.55h-18.29v-1.55c2.31,0,4.46-.73,6.46-2.18s3.76-4.09,5.28-7.92L340.6,1.73h2.91l19.56,52.87ZM352.43,50.78l-13.56-38.86-15.01,38.86h28.57Z"></path><path class="cls-1" d="M407.3,14.47c0,2.06.86,3.94,2.59,5.64,1.73,1.7,3.9,3.32,6.51,4.87,2.61,1.55,5.41,3.12,8.42,4.73,3,1.61,5.81,3.34,8.42,5.19,2.61,1.85,4.78,3.93,6.51,6.23,1.73,2.31,2.59,4.95,2.59,7.92,0,3.52-.55,6.48-1.64,8.87-1.09,2.4-2.64,4.31-4.64,5.73-2,1.43-4.37,2.44-7.1,3.05-2.73.61-5.73.91-9.01.91s-6.61-.26-10.37-.77c-3.76-.51-7.71-1.17-11.83-1.96v-12.38h1.73c2.24,4.31,5.14,7.42,8.69,9.33,3.55,1.91,7.45,2.87,11.69,2.87,2,0,3.85-.26,5.55-.77,1.7-.51,3.18-1.27,4.46-2.28,1.27-1,2.27-2.26,3-3.78.73-1.52,1.09-3.28,1.09-5.28,0-2.85-.83-5.31-2.5-7.37-1.67-2.06-3.78-3.93-6.32-5.6-2.55-1.67-5.28-3.25-8.19-4.73-2.91-1.49-5.64-3.06-8.19-4.73-2.55-1.67-4.66-3.53-6.32-5.6-1.67-2.06-2.5-4.52-2.5-7.37s.61-5.31,1.82-7.19c1.21-1.88,2.81-3.37,4.78-4.46,1.97-1.09,4.22-1.83,6.73-2.23,2.52-.39,5.11-.59,7.78-.59,2.49,0,5.05.14,7.69.41,2.64.27,5.11.56,7.42.86v10.01h-1.64c-1.76-2.97-4-5.14-6.73-6.51-2.73-1.37-5.7-2.05-8.92-2.05-1.52,0-2.97.18-4.37.55-1.4.36-2.62.91-3.68,1.64-1.06.73-1.91,1.65-2.55,2.78-.64,1.12-.96,2.47-.96,4.05Z"></path><path class="cls-1" d="M466.72,2.37c3.28-.67,6.46-1.23,9.55-1.68,3.09-.46,6.16-.68,9.19-.68s5.72.26,8.23.77c2.52.52,4.7,1.4,6.55,2.64,1.85,1.24,3.31,2.87,4.37,4.87,1.06,2,1.59,4.49,1.59,7.46,0,3.22-.58,5.96-1.73,8.24-1.15,2.27-2.59,4.32-4.32,6.14-1.73,1.82-3.59,3.5-5.6,5.05s-3.87,3.2-5.6,4.96c-1.73,1.76-3.17,3.7-4.32,5.82-1.15,2.12-1.73,4.67-1.73,7.64h-2.82c-.42-1.94-.64-3.82-.64-5.64,0-2.79.46-5.22,1.36-7.28.91-2.06,2.05-3.93,3.41-5.6,1.36-1.67,2.85-3.23,4.46-4.69s3.09-2.99,4.46-4.6c1.37-1.61,2.5-3.38,3.41-5.32.91-1.94,1.36-4.22,1.36-6.82,0-1.82-.32-3.38-.96-4.69-.64-1.3-1.49-2.38-2.55-3.23-1.06-.85-2.29-1.49-3.69-1.91-1.4-.42-2.85-.64-4.37-.64-1.76,0-3.56.27-5.41.82-1.85.55-3.59,1.36-5.23,2.46-1.64,1.09-3.09,2.44-4.37,4.05-1.27,1.61-2.28,3.47-3,5.6h-1.64V2.37ZM481.55,55.96c1.46,0,2.7.47,3.73,1.41,1.03.94,1.55,2.11,1.55,3.5s-.55,2.59-1.64,3.59-2.34,1.5-3.73,1.5-2.68-.48-3.69-1.46c-1-.97-1.5-2.15-1.5-3.55s.5-2.58,1.5-3.55c1-.97,2.26-1.46,3.78-1.46Z"></path></g></g></svg>