<svg xmlns="http://www.w3.org/2000/svg" id="Capa_2" viewBox="0 0 501.52 58.4"><defs><style>      .cls-1 {        fill: #fff;      }    </style></defs><g id="Capa_1-2" data-name="Capa_1"><g><path class="cls-1" d="M51.04,55.04c-1.23.53-2.53,1.09-3.92,1.68-1.39.59-2.8.85-4.24.8-1.71-.05-3.29-.63-4.76-1.72-1.47-1.09-2.85-2.45-4.16-4.08-1.31-1.63-2.61-3.39-3.92-5.28-1.31-1.89-2.67-3.69-4.08-5.4-1.41-1.71-2.96-3.17-4.64-4.4-1.68-1.23-3.53-1.97-5.56-2.24-.43-.05-.8-.08-1.12-.08h-.88v13.84c0,1.65.16,3,.48,4.04.32,1.04.77,1.83,1.36,2.36.59.53,1.28.89,2.08,1.08.8.19,1.65.28,2.56.28v1.36H0v-1.36c.91,0,1.76-.09,2.56-.28.8-.19,1.48-.55,2.04-1.08s1-1.31,1.32-2.32c.32-1.01.48-2.35.48-4V10.56c0-1.65-.16-3-.48-4.04-.32-1.04-.76-1.84-1.32-2.4-.56-.56-1.24-.93-2.04-1.12-.8-.19-1.65-.28-2.56-.28v-1.36h22.72c6.83,0,12.09,1.15,15.8,3.44,3.71,2.29,5.56,6.16,5.56,11.6,0,3.09-.59,5.69-1.76,7.8-1.17,2.11-2.73,3.83-4.68,5.16-1.95,1.33-4.16,2.33-6.64,3-2.48.67-5.03,1.11-7.64,1.32,2.24.43,4.19,1.24,5.84,2.44s3.15,2.56,4.48,4.08c1.33,1.52,2.55,3.11,3.64,4.76,1.09,1.65,2.19,3.16,3.28,4.52,1.09,1.36,2.25,2.48,3.48,3.36,1.23.88,2.61,1.32,4.16,1.32.85,0,1.63-.11,2.32-.32l.48,1.2ZM13.76,32.48c3.09-.11,6.03-.43,8.8-.96,2.77-.53,5.2-1.44,7.28-2.72,2.08-1.28,3.73-2.97,4.96-5.08,1.23-2.11,1.84-4.73,1.84-7.88,0-4.48-1.24-7.73-3.72-9.76-2.48-2.03-5.93-3.04-10.36-3.04h-3.52c-.69,0-1.36.09-2,.28-.64.19-1.2.53-1.68,1.04-.48.51-.87,1.2-1.16,2.08s-.44,2.01-.44,3.4v22.64Z"></path><path class="cls-1" d="M121.12,47.12v10.16h-44.24v-1.36c.91,0,1.76-.08,2.56-.24.8-.16,1.48-.52,2.04-1.08.56-.56,1-1.35,1.32-2.36.32-1.01.48-2.35.48-4V10.56c0-1.65-.16-3-.48-4.04-.32-1.04-.76-1.84-1.32-2.4-.56-.56-1.24-.93-2.04-1.12-.8-.19-1.65-.28-2.56-.28v-1.36h42.32v10.08h-1.44c-.85-1.97-1.75-3.52-2.68-4.64-.93-1.12-2.03-1.96-3.28-2.52-1.25-.56-2.76-.91-4.52-1.04-1.76-.13-3.89-.2-6.4-.2h-4.96c-.69,0-1.36.09-2,.28-.64.19-1.2.52-1.68,1s-.87,1.16-1.16,2.04-.44,2.01-.44,3.4v19.12h11.84c1.44,0,2.61-.08,3.52-.24.91-.16,1.67-.4,2.28-.72.61-.32,1.09-.75,1.44-1.28.35-.53.63-1.17.84-1.92h1.36v10.08h-1.44c-.43-1.49-1.16-2.56-2.2-3.2-1.04-.64-2.97-.96-5.8-.96h-11.84v18.8c0,1.71.41,3.15,1.24,4.32.83,1.17,2.36,1.76,4.6,1.76h6.4c2.51,0,4.61-.07,6.32-.2,1.71-.13,3.2-.48,4.48-1.04,1.28-.56,2.39-1.4,3.32-2.52.93-1.12,1.83-2.67,2.68-4.64h1.44Z"></path><path class="cls-1" d="M202.56,28.24v1.36c-.53.05-1.01.2-1.44.44-.43.24-.8.65-1.12,1.24-.32.59-.56,1.39-.72,2.4-.16,1.01-.24,2.37-.24,4.08v7.84c-2.88,4.21-6.39,7.35-10.52,9.4-4.13,2.05-8.36,3.08-12.68,3.08-3.52,0-6.96-.6-10.32-1.8-3.36-1.2-6.36-2.99-9-5.36-2.64-2.37-4.76-5.33-6.36-8.88-1.6-3.55-2.4-7.67-2.4-12.36,0-5.44.85-10,2.56-13.68,1.71-3.68,4.03-6.64,6.96-8.88,2.93-2.24,6.36-3.84,10.28-4.8s8.09-1.44,12.52-1.44c2.61,0,5.33.16,8.16.48,2.83.32,5.76.75,8.8,1.28v10.8h-1.44c-1.76-3.52-4.25-6.13-7.48-7.84-3.23-1.71-6.89-2.56-11-2.56-2.88,0-5.65.51-8.32,1.52-2.67,1.01-5.01,2.51-7.04,4.48-2.03,1.97-3.65,4.41-4.88,7.32-1.23,2.91-1.84,6.28-1.84,10.12,0,4.32.65,8.19,1.96,11.6,1.31,3.41,3.08,6.29,5.32,8.64,2.24,2.35,4.84,4.15,7.8,5.4,2.96,1.25,6.07,1.88,9.32,1.88,1.39,0,2.83-.13,4.32-.4,1.49-.27,2.87-.72,4.12-1.36,1.25-.64,2.29-1.51,3.12-2.6.83-1.09,1.24-2.47,1.24-4.12v-9.36c0-2.29-.41-3.93-1.24-4.92-.83-.99-2.01-1.53-3.56-1.64v-1.36h15.12Z"></path><path class="cls-1" d="M272.4,46.48c.85,2.24,1.71,4,2.56,5.28.85,1.28,1.68,2.23,2.48,2.84.8.61,1.55.99,2.24,1.12.69.13,1.31.2,1.84.2v1.36h-20.64v-1.36c1.39,0,2.52-.35,3.4-1.04.88-.69,1.32-1.65,1.32-2.88,0-.53-.07-1.11-.2-1.72-.13-.61-.33-1.29-.6-2.04l-1.2-3.36h-26.4l-1.28,3.28c-.64,1.49-.96,2.85-.96,4.08,0,1.01.37,1.88,1.12,2.6.75.72,2.03,1.08,3.84,1.08v1.36h-16.08v-1.36c2.03,0,3.92-.64,5.68-1.92,1.76-1.28,3.31-3.6,4.64-6.96L252.64,0h2.56l17.2,46.48ZM263.04,43.12l-11.92-34.16-13.2,34.16h25.12Z"></path><path class="cls-1" d="M351.84,47.12v10.16h-45.04v-1.36c1.01,0,1.91-.11,2.68-.32.77-.21,1.44-.61,2-1.2.56-.59.99-1.41,1.28-2.48.29-1.07.44-2.48.44-4.24V10.56c0-1.65-.16-3-.48-4.04-.32-1.04-.76-1.84-1.32-2.4-.56-.56-1.24-.93-2.04-1.12-.8-.19-1.65-.28-2.56-.28v-1.36h20.24v1.36c-.91,0-1.76.09-2.56.28-.8.19-1.49.56-2.08,1.12-.59.56-1.04,1.35-1.36,2.36-.32,1.01-.48,2.35-.48,4v39.12c0,1.71.44,3.12,1.32,4.24.88,1.12,2.33,1.68,4.36,1.68h6.64c2.67,0,4.91-.07,6.72-.2,1.81-.13,3.37-.48,4.68-1.04,1.31-.56,2.43-1.4,3.36-2.52.93-1.12,1.83-2.67,2.68-4.64h1.52Z"></path><path class="cls-1" d="M376.96,29.28c0-4.85.83-9.11,2.48-12.76,1.65-3.65,3.81-6.69,6.48-9.12,2.67-2.43,5.71-4.24,9.12-5.44,3.41-1.2,6.91-1.8,10.48-1.8s7.07.6,10.48,1.8c3.41,1.2,6.47,3.01,9.16,5.44,2.69,2.43,4.85,5.47,6.48,9.12,1.63,3.65,2.44,7.91,2.44,12.76s-.81,9.09-2.44,12.72c-1.63,3.63-3.79,6.65-6.48,9.08-2.69,2.43-5.75,4.25-9.16,5.48-3.41,1.23-6.91,1.84-10.48,1.84s-7.07-.6-10.48-1.8c-3.41-1.2-6.45-3.01-9.12-5.44-2.67-2.43-4.83-5.47-6.48-9.12-1.65-3.65-2.48-7.91-2.48-12.76ZM384.4,26c0,3.47.48,7,1.44,10.6.96,3.6,2.39,6.87,4.28,9.8,1.89,2.93,4.24,5.33,7.04,7.2,2.8,1.87,6.04,2.8,9.72,2.8,2.72,0,5.28-.56,7.68-1.68,2.4-1.12,4.51-2.72,6.32-4.8,1.81-2.08,3.24-4.59,4.28-7.52,1.04-2.93,1.56-6.21,1.56-9.84s-.49-7-1.48-10.6c-.99-3.6-2.43-6.87-4.32-9.8-1.89-2.93-4.24-5.33-7.04-7.2-2.8-1.87-6.04-2.8-9.72-2.8-2.72,0-5.27.56-7.64,1.68-2.37,1.12-4.47,2.72-6.28,4.8-1.81,2.08-3.24,4.59-4.28,7.52-1.04,2.93-1.56,6.21-1.56,9.84Z"></path><path class="cls-1" d="M470.72,11.2c0,1.81.76,3.47,2.28,4.96,1.52,1.49,3.43,2.92,5.72,4.28,2.29,1.36,4.76,2.75,7.4,4.16s5.11,2.93,7.4,4.56c2.29,1.63,4.2,3.45,5.72,5.48,1.52,2.03,2.28,4.35,2.28,6.96,0,3.09-.48,5.69-1.44,7.8-.96,2.11-2.32,3.79-4.08,5.04-1.76,1.25-3.84,2.15-6.24,2.68-2.4.53-5.04.8-7.92.8s-5.81-.23-9.12-.68c-3.31-.45-6.77-1.03-10.4-1.72v-10.88h1.52c1.97,3.79,4.52,6.52,7.64,8.2,3.12,1.68,6.55,2.52,10.28,2.52,1.76,0,3.39-.23,4.88-.68s2.8-1.12,3.92-2c1.12-.88,2-1.99,2.64-3.32.64-1.33.96-2.88.96-4.64,0-2.51-.73-4.67-2.2-6.48-1.47-1.81-3.32-3.45-5.56-4.92-2.24-1.47-4.64-2.85-7.2-4.16-2.56-1.31-4.96-2.69-7.2-4.16-2.24-1.47-4.09-3.11-5.56-4.92-1.47-1.81-2.2-3.97-2.2-6.48s.53-4.67,1.6-6.32c1.07-1.65,2.47-2.96,4.2-3.92,1.73-.96,3.71-1.61,5.92-1.96,2.21-.35,4.49-.52,6.84-.52,2.19,0,4.44.12,6.76.36,2.32.24,4.49.49,6.52.76v8.8h-1.44c-1.55-2.61-3.52-4.52-5.92-5.72-2.4-1.2-5.01-1.8-7.84-1.8-1.33,0-2.61.16-3.84.48-1.23.32-2.31.8-3.24,1.44-.93.64-1.68,1.45-2.24,2.44-.56.99-.84,2.17-.84,3.56Z"></path></g></g></svg>